<svg width="32" height="32" viewBox="0 0 32 32" fill="none" xmlns="http://www.w3.org/2000/svg">
<g clip-path="url(#clip0_582_333)">
<path fill-rule="evenodd" clip-rule="evenodd" d="M15.4106 16.8331H11.3367L16.6895 9.9801L16.4069 14.817C16.404 14.8674 16.422 14.9166 16.4567 14.9533C16.4911 14.9897 16.5392 15.0105 16.5893 15.0105H20.6549L15.0132 21.9885L15.5915 17.0366C15.5975 16.9852 15.5811 16.9332 15.5466 16.8945C15.5119 16.8557 15.4628 16.8331 15.4106 16.8331Z" fill="#88D0E4"/>
<path fill-rule="evenodd" clip-rule="evenodd" d="M15.3616 21.1599L15.8398 17.0656C15.8542 16.9431 15.8156 16.82 15.733 16.7281C15.651 16.6356 15.5337 16.5831 15.4104 16.5831H11.849L16.3931 10.7656L16.1572 14.8024C16.1504 14.9218 16.1929 15.038 16.2748 15.1249C16.3565 15.2112 16.4703 15.2605 16.5891 15.2605H20.131L15.3616 21.1599ZM21.0369 14.3956H17.0479L17.3369 9.43188C17.3481 9.24313 17.2349 9.06931 17.058 9.00237C16.8805 8.9355 16.6813 8.99181 16.5642 9.14056L10.6224 16.7492C10.5204 16.8792 10.5018 17.0561 10.5743 17.2049C10.6469 17.3536 10.7972 17.448 10.9629 17.448H14.9241L14.3297 22.5429C14.3072 22.7343 14.4143 22.9174 14.5918 22.9918C14.6461 23.0142 14.7029 23.0255 14.7592 23.0255C14.8866 23.0255 15.0116 22.9686 15.0953 22.8648L21.3729 15.0998C21.4773 14.9699 21.4984 14.7917 21.4266 14.6417C21.3549 14.4913 21.2028 14.3956 21.0369 14.3956ZM7.84163 2.73431C7.72225 2.52744 7.793 2.263 7.99994 2.14363C8.2075 2.02363 8.47106 2.095 8.59044 2.30194L10.5236 5.64988C10.6429 5.85688 10.5725 6.12112 10.3655 6.24056C10.2974 6.27994 10.2228 6.29869 10.1497 6.29869C9.99963 6.29869 9.85488 6.22119 9.77469 6.08238L7.84163 2.73431ZM6.24044 10.3657C6.16056 10.5043 6.0155 10.5818 5.866 10.5818C5.79231 10.5818 5.718 10.5632 5.64994 10.5238L2.30169 8.59062C2.09469 8.47119 2.02369 8.20688 2.14369 7.99994C2.26306 7.79369 2.52756 7.7225 2.73419 7.84181L6.08244 9.77494C6.28906 9.89438 6.36044 10.1587 6.24044 10.3657ZM4.2985 16.4325H0.432187C0.193687 16.4325 0 16.2388 0 15.9999C0 15.7612 0.193687 15.5675 0.432187 15.5675H4.29844C4.53725 15.5675 4.73094 15.7612 4.73094 15.9999C4.731 16.2388 4.53725 16.4325 4.2985 16.4325ZM6.24044 21.6343C6.36044 21.8412 6.28906 22.1056 6.08244 22.225L2.73419 24.1582C2.66606 24.1976 2.59175 24.2162 2.51806 24.2162C2.36856 24.2162 2.22356 24.1388 2.14363 24C2.02363 23.7931 2.09469 23.5288 2.30163 23.4093L5.64988 21.4762C5.8575 21.3562 6.12106 21.4275 6.24044 21.6343ZM10.5236 26.3499L8.59044 29.6981C8.51056 29.8369 8.36494 29.9144 8.21544 29.9144C8.14231 29.9144 8.068 29.8956 7.99994 29.8563C7.793 29.7369 7.72225 29.4725 7.84163 29.2657L9.77475 25.9175C9.89412 25.7107 10.1586 25.6394 10.3656 25.7594C10.5725 25.8787 10.643 26.1431 10.5236 26.3499ZM16.4324 27.7013V31.5674C16.4324 31.8063 16.2387 32 15.9999 32C15.7611 32 15.5674 31.8063 15.5674 31.5674V27.7013C15.5674 27.4626 15.7611 27.2687 15.9999 27.2687C16.2387 27.2687 16.4324 27.4626 16.4324 27.7013ZM24.1578 29.2657C24.2772 29.4725 24.2068 29.7369 23.9998 29.8563C23.9317 29.8956 23.8574 29.9144 23.7843 29.9144C23.6348 29.9144 23.4892 29.8369 23.4093 29.6981L21.4762 26.3499C21.3567 26.1431 21.4276 25.8787 21.6342 25.7594C21.8418 25.6394 22.1056 25.7107 22.225 25.9175L24.1578 29.2657ZM29.8561 24C29.7762 24.1388 29.6306 24.2162 29.4811 24.2162C29.4079 24.2162 29.3336 24.1976 29.2656 24.1582L25.9172 22.225C25.7103 22.1056 25.6393 21.8413 25.7593 21.6343C25.8786 21.4275 26.1431 21.3562 26.3498 21.4762L29.698 23.4093C29.9047 23.5288 29.9755 23.7931 29.8561 24ZM32 15.9999C32 16.2388 31.806 16.4325 31.5672 16.4325H27.7009C27.4624 16.4325 27.2687 16.2388 27.2687 15.9999C27.2687 15.7612 27.4624 15.5675 27.7009 15.5675H31.5672C31.806 15.5675 32 15.7612 32 15.9999ZM25.7593 10.3657C25.6393 10.1587 25.7103 9.89444 25.9172 9.775L29.2655 7.84188C29.4731 7.72256 29.7366 7.79319 29.856 8C29.9754 8.20694 29.9046 8.47125 29.698 8.59069L26.3498 10.5238C26.2816 10.5632 26.2074 10.5819 26.1336 10.5819C25.9842 10.5818 25.8392 10.5043 25.7593 10.3657ZM21.4761 5.64994L23.4093 2.302C23.5287 2.09506 23.7931 2.02369 23.9998 2.14369C24.2068 2.26306 24.2772 2.52756 24.1578 2.73438L22.225 6.0825C22.1448 6.22125 21.9998 6.29881 21.85 6.29881C21.7766 6.29881 21.7026 6.28006 21.6342 6.24069C21.4275 6.12119 21.3567 5.85688 21.4761 5.64994ZM15.5674 4.29869V0.4325C15.5674 0.193687 15.7611 0 15.9999 0C16.2387 0 16.4324 0.193687 16.4324 0.4325V4.29869C16.4324 4.53744 16.2387 4.73125 15.9999 4.73125C15.7611 4.73125 15.5674 4.53744 15.5674 4.29869ZM15.9999 24.6231C20.7547 24.6231 24.6231 20.7549 24.6231 15.9999C24.6231 11.2449 20.7548 7.37681 15.9999 7.37681C11.2447 7.37681 7.37669 11.2449 7.37669 15.9999C7.37669 20.7549 11.2447 24.6231 15.9999 24.6231ZM15.9999 6.51181C10.768 6.51181 6.51169 10.7681 6.51169 15.9999C6.51169 21.2318 10.768 25.4882 15.9999 25.4882C21.2318 25.4882 25.4881 21.2318 25.4881 15.9999C25.488 10.7682 21.2317 6.51181 15.9999 6.51181Z" fill="#0E7490"/>
</g>
<defs>
<clipPath id="clip0_582_333">
<rect width="32" height="32" fill="white"/>
</clipPath>
</defs>
</svg>
